{
  "accessors": [
    {
      "bufferView": 2,
      "componentType": 5126,
      "count": 984,
      "max": [
        0.3087182343006134,
        0.012104581110179424,
        0.13777831196784973
      ],
      "min": [
        -0.09963594377040863,
        -0.012104581110179424,
        -0.10236331075429916
      ],
      "type": "VEC3"
    },
    {
      "bufferView": 2,
      "byteOffset": 11808,
      "componentType": 5126,
      "count": 984,
      "max": [
        0.5303356051445007,
        1.0,
        0.9088976383209229
      ],
      "min": [
        -0.7597828507423401,
        -1.0,
        -0.6952324509620667
      ],
      "type": "VEC3"
    },
    {
      "bufferView": 3,
      "componentType": 5126,
      "count": 984,
      "max": [
        0.6492111086845398,
        0.8996382355690002,
        0.9940030574798584,
        1.0
      ],
      "min": [
        -0.46302923560142517,
        -0.8996381759643555,
        0.38821765780448914,
        1.0
      ],
      "type": "VEC4"
    },
    {
      "bufferView": 1,
      "componentType": 5126,
      "count": 984,
      "max": [
        0.7948209047317505,
        0.8682265281677246
      ],
      "min": [
        0.0010738736018538475,
        0.0011156528489664197
      ],
      "type": "VEC2"
    },
    {
      "bufferView": 1,
      "byteOffset": 7872,
      "componentType": 5126,
      "count": 984,
      "max": [
        0.7948209047317505,
        0.8682265281677246
      ],
      "min": [
        0.0010738736018538475,
        0.0011156528489664197
      ],
      "type": "VEC2"
    },
    {
      "bufferView": 1,
      "byteOffset": 15744,
      "componentType": 5126,
      "count": 984,
      "max": [
        0.7948209047317505,
        0.8682265281677246
      ],
      "min": [
        0.0010738736018538475,
        0.0011156528489664197
      ],
      "type": "VEC2"
    },
    {
      "bufferView": 0,
      "componentType": 5125,
      "count": 3450,
      "type": "SCALAR"
    },
    {
      "bufferView": 2,
      "byteOffset": 23616,
      "componentType": 5126,
      "count": 734,
      "max": [
        0.03231048583984375,
        0.011990496888756752,
        0.018119169399142265
      ],
      "min": [
        -0.015661105513572693,
        -0.011990496888756752,
        -0.01828456111252308
      ],
      "type": "VEC3"
    },
    {
      "bufferView": 2,
      "byteOffset": 32424,
      "componentType": 5126,
      "count": 734,
      "max": [
        0.7191476225852966,
        0.9998913407325745,
        0.9999961853027344
      ],
      "min": [
        -0.9999503493309021,
        -0.9998913407325745,
        -0.9999976754188538
      ],
      "type": "VEC3"
    },
    {
      "bufferView": 3,
      "byteOffset": 15744,
      "componentType": 5126,
      "count": 734,
      "max": [
        0.9998944401741028,
        0.9999848008155823,
        0.6955626606941223,
        1.0
      ],
      "min": [
        -0.9754493832588196,
        -0.999662458896637,
        -0.999567985534668,
        1.0
      ],
      "type": "VEC4"
    },
    {
      "bufferView": 1,
      "byteOffset": 23616,
      "componentType": 5126,
      "count": 734,
      "max": [
        0.8257848620414734,
        0.9489175081253052
      ],
      "min": [
        0.0009791665943339467,
        0.28831523656845093
      ],
      "type": "VEC2"
    },
    {
      "bufferView": 1,
      "byteOffset": 29488,
      "componentType": 5126,
      "count": 734,
      "max": [
        0.8257848620414734,
        0.9489175081253052
      ],
      "min": [
        0.0009791665943339467,
        0.28831523656845093
      ],
      "type": "VEC2"
    },
    {
      "bufferView": 1,
      "byteOffset": 35360,
      "componentType": 5126,
      "count": 734,
      "max": [
        0.8257848620414734,
        0.9489175081253052
      ],
      "min": [
        0.0009791665943339467,
        0.28831523656845093
      ],
      "type": "VEC2"
    },
    {
      "bufferView": 0,
      "byteOffset": 13800,
      "componentType": 5125,
      "count": 3162,
      "type": "SCALAR"
    },
    {
      "bufferView": 2,
      "byteOffset": 41232,
      "componentType": 5126,
      "count": 6725,
      "max": [
        0.0007506464025937021,
        0.012428340502083302,
        0.016843417659401894
      ],
      "min": [
        -0.08016150444746017,
        -0.012428340502083302,
        -0.0192752406001091
      ],
      "type": "VEC3"
    },
    {
      "bufferView": 2,
      "byteOffset": 121932,
      "componentType": 5126,
      "count": 6725,
      "max": [
        0.9999927282333374,
        0.9998587369918823,
        0.9998366832733154
      ],
      "min": [
        -0.9943453669548035,
        -0.9998587369918823,
        -0.9992386698722839
      ],
      "type": "VEC3"
    },
    {
      "bufferView": 3,
      "byteOffset": 27488,
      "componentType": 5126,
      "count": 6725,
      "max": [
        0.9905123114585876,
        0.9999998211860657,
        0.9997654557228088,
        1.0
      ],
      "min": [
        -0.9992386102676392,
        -1.0,
        -0.9999927878379822,
        -1.0
      ],
      "type": "VEC4"
    },
    {
      "bufferView": 1,
      "byteOffset": 41232,
      "componentType": 5126,
      "count": 6725,
      "max": [
        0.8542252779006958,
        0.9986969828605652
      ],
      "min": [
        0.0012213615700602531,
        0.0009765625
      ],
      "type": "VEC2"
    },
    {
      "bufferView": 1,
      "byteOffset": 95032,
      "componentType": 5126,
      "count": 6725,
      "max": [
        0.8542252779006958,
        0.9986969828605652
      ],
      "min": [
        0.0012213615700602531,
        0.0009765625
      ],
      "type": "VEC2"
    },
    {
      "bufferView": 1,
      "byteOffset": 148832,
      "componentType": 5126,
      "count": 6725,
      "max": [
        0.8542252779006958,
        0.9986969828605652
      ],
      "min": [
        0.0012213615700602531,
        0.0009765625
      ],
      "type": "VEC2"
    },
    {
      "bufferView": 0,
      "byteOffset": 26448,
      "componentType": 5125,
      "count": 25590,
      "type": "SCALAR"
    },
    {
      "bufferView": 2,
      "byteOffset": 202632,
      "componentType": 5126,
      "count": 1604,
      "max": [
        0.022107895463705063,
        0.06817270815372467,
        -0.03359413146972656
      ],
      "min": [
        -0.022107895463705063,
        -0.08640149235725403,
        -0.23638185858726501
      ],
      "type": "VEC3"
    },
    {
      "bufferView": 2,
      "byteOffset": 221880,
      "componentType": 5126,
      "count": 1604,
      "max": [
        0.9999906420707703,
        0.9996097683906555,
        0.9980863332748413
      ],
      "min": [
        -0.9999906420707703,
        -0.9984801411628723,
        -0.9999994039535522
      ],
      "type": "VEC3"
    },
    {
      "bufferView": 3,
      "byteOffset": 135088,
      "componentType": 5126,
      "count": 1604,
      "max": [
        0.9999701976776123,
        0.9969613552093506,
        0.9998170137405396,
        1.0
      ],
      "min": [
        -0.9999973177909851,
        -0.9999995231628418,
        -0.9998169541358948,
        -1.0
      ],
      "type": "VEC4"
    },
    {
      "bufferView": 1,
      "byteOffset": 202632,
      "componentType": 5126,
      "count": 1604,
      "max": [
        0.9516981244087219,
        0.9990234375
      ],
      "min": [
        0.0009829390328377485,
        0.10242432355880737
      ],
      "type": "VEC2"
    },
    {
      "bufferView": 1,
      "byteOffset": 215464,
      "componentType": 5126,
      "count": 1604,
      "max": [
        0.9516981244087219,
        0.9990234375
      ],
      "min": [
        0.0009829390328377485,
        0.10242432355880737
      ],
      "type": "VEC2"
    },
    {
      "bufferView": 1,
      "byteOffset": 228296,
      "componentType": 5126,
      "count": 1604,
      "max": [
        0.9516981244087219,
        0.9990234375
      ],
      "min": [
        0.0009829390328377485,
        0.10242432355880737
      ],
      "type": "VEC2"
    },
    {
      "bufferView": 0,
      "byteOffset": 128808,
      "componentType": 5125,
      "count": 8820,
      "type": "SCALAR"
    },
    {
      "bufferView": 2,
      "byteOffset": 241128,
      "componentType": 5126,
      "count": 1848,
      "max": [
        0.015457846224308014,
        0.011767588555812836,
        0.0719311386346817
      ],
      "min": [
        -0.02173645794391632,
        -0.0664975494146347,
        0.03827059268951416
      ],
      "type": "VEC3"
    },
    {
      "bufferView": 2,
      "byteOffset": 263304,
      "componentType": 5126,
      "count": 1848,
      "max": [
        0.9999983906745911,
        0.9839450716972351,
        1.0
      ],
      "min": [
        -0.9999983906745911,
        -0.12851499021053314,
        -0.9999997019767761
      ],
      "type": "VEC3"
    },
    {
      "bufferView": 3,
      "byteOffset": 160752,
      "componentType": 5126,
      "count": 1848,
      "max": [
        0.9999958872795105,
        0.9999974370002747,
        0.9999929070472717,
        1.0
      ],
      "min": [
        -0.9999595284461975,
        -0.9999997615814209,
        -0.9999901652336121,
        -1.0
      ],
      "type": "VEC4"
    },
    {
      "bufferView": 1,
      "byteOffset": 241128,
      "componentType": 5126,
      "count": 1848,
      "max": [
        0.8429445028305054,
        0.980057954788208
      ],
      "min": [
        0.44282907247543335,
        0.0009864334715530276
      ],
      "type": "VEC2"
    },
    {
      "bufferView": 1,
      "byteOffset": 255912,
      "componentType": 5126,
      "count": 1848,
      "max": [
        0.8429445028305054,
        0.980057954788208
      ],
      "min": [
        0.44282907247543335,
        0.0009864334715530276
      ],
      "type": "VEC2"
    },
    {
      "bufferView": 1,
      "byteOffset": 270696,
      "componentType": 5126,
      "count": 1848,
      "max": [
        0.8429445028305054,
        0.980057954788208
      ],
      "min": [
        0.44282907247543335,
        0.0009864334715530276
      ],
      "type": "VEC2"
    },
    {
      "bufferView": 0,
      "byteOffset": 164088,
      "componentType": 5125,
      "count": 9084,
      "type": "SCALAR"
    },
    {
      "bufferView": 2,
      "byteOffset": 285480,
      "componentType": 5126,
      "count": 1185,
      "max": [
        -0.0009715594351291656,
        0.004100323189049959,
        0.014809292741119862
      ],
      "min": [
        -0.10337018221616745,
        -0.004100323189049959,
        -0.037229202687740326
      ],
      "type": "VEC3"
    },
    {
      "bufferView": 2,
      "byteOffset": 299700,
      "componentType": 5126,
      "count": 1185,
      "max": [
        0.999479353427887,
        1.0,
        0.9488034844398499
      ],
      "min": [
        -0.9998621344566345,
        -1.0,
        -0.999979555606842
      ],
      "type": "VEC3"
    },
    {
      "bufferView": 3,
      "byteOffset": 190320,
      "componentType": 5126,
      "count": 1185,
      "max": [
        0.6701163053512573,
        0.9997763633728027,
        0.8946665525436401,
        1.0
      ],
      "min": [
        -0.997599184513092,
        -0.9992712736129761,
        -0.9598500728607178,
        -1.0
      ],
      "type": "VEC4"
    },
    {
      "bufferView": 1,
      "byteOffset": 285480,
      "componentType": 5126,
      "count": 1185,
      "max": [
        0.21323084831237793,
        0.9328638315200806
      ],
      "min": [
        0.0009765625,
        0.0015628186520189047
      ],
      "type": "VEC2"
    },
    {
      "bufferView": 1,
      "byteOffset": 294960,
      "componentType": 5126,
      "count": 1185,
      "max": [
        0.21323084831237793,
        0.9328638315200806
      ],
      "min": [
        0.0009765625,
        0.0015628186520189047
      ],
      "type": "VEC2"
    },
    {
      "bufferView": 1,
      "byteOffset": 304440,
      "componentType": 5126,
      "count": 1185,
      "max": [
        0.21323084831237793,
        0.9328638315200806
      ],
      "min": [
        0.0009765625,
        0.0015628186520189047
      ],
      "type": "VEC2"
    },
    {
      "bufferView": 0,
      "byteOffset": 200424,
      "componentType": 5125,
      "count": 4236,
      "type": "SCALAR"
    },
    {
      "bufferView": 2,
      "byteOffset": 313920,
      "componentType": 5126,
      "count": 984,
      "max": [
        0.3087182343006134,
        0.012104581110179424,
        0.13777831196784973
      ],
      "min": [
        -0.09963594377040863,
        -0.012104581110179424,
        -0.10236331075429916
      ],
      "type": "VEC3"
    },
    {
      "bufferView": 2,
      "byteOffset": 325728,
      "componentType": 5126,
      "count": 984,
      "max": [
        0.5303356051445007,
        1.0,
        0.9088976383209229
      ],
      "min": [
        -0.7597828507423401,
        -1.0,
        -0.6952324509620667
      ],
      "type": "VEC3"
    },
    {
      "bufferView": 3,
      "byteOffset": 209280,
      "componentType": 5126,
      "count": 984,
      "max": [
        0.6492111086845398,
        0.8996382355690002,
        0.9940030574798584,
        1.0
      ],
      "min": [
        -0.46302923560142517,
        -0.8996381759643555,
        0.38821765780448914,
        1.0
      ],
      "type": "VEC4"
    },
    {
      "bufferView": 1,
      "byteOffset": 313920,
      "componentType": 5126,
      "count": 984,
      "max": [
        0.7948209047317505,
        0.8682265281677246
      ],
      "min": [
        0.0010738736018538475,
        0.0011156528489664197
      ],
      "type": "VEC2"
    },
    {
      "bufferView": 1,
      "byteOffset": 321792,
      "componentType": 5126,
      "count": 984,
      "max": [
        0.7948209047317505,
        0.8682265281677246
      ],
      "min": [
        0.0010738736018538475,
        0.0011156528489664197
      ],
      "type": "VEC2"
    },
    {
      "bufferView": 1,
      "byteOffset": 329664,
      "componentType": 5126,
      "count": 984,
      "max": [
        0.7948209047317505,
        0.8682265281677246
      ],
      "min": [
        0.0010738736018538475,
        0.0011156528489664197
      ],
      "type": "VEC2"
    },
    {
      "bufferView": 0,
      "byteOffset": 217368,
      "componentType": 5125,
      "count": 3450,
      "type": "SCALAR"
    },
    {
      "bufferView": 2,
      "byteOffset": 337536,
      "componentType": 5126,
      "count": 734,
      "max": [
        0.03231048583984375,
        0.011990496888756752,
        0.018119169399142265
      ],
      "min": [
        -0.015661105513572693,
        -0.011990496888756752,
        -0.01828456111252308
      ],
      "type": "VEC3"
    },
    {
      "bufferView": 2,
      "byteOffset": 346344,
      "componentType": 5126,
      "count": 734,
      "max": [
        0.7191476225852966,
        0.9998913407325745,
        0.9999961853027344
      ],
      "min": [
        -0.9999503493309021,
        -0.9998913407325745,
        -0.9999976754188538
      ],
      "type": "VEC3"
    },
    {
      "bufferView": 3,
      "byteOffset": 225024,
      "componentType": 5126,
      "count": 734,
      "max": [
        0.9998944401741028,
        0.9999848008155823,
        0.6955626606941223,
        1.0
      ],
      "min": [
        -0.9754493832588196,
        -0.999662458896637,
        -0.999567985534668,
        1.0
      ],
      "type": "VEC4"
    },
    {
      "bufferView": 1,
      "byteOffset": 337536,
      "componentType": 5126,
      "count": 734,
      "max": [
        0.8257848620414734,
        0.9489175081253052
      ],
      "min": [
        0.0009791665943339467,
        0.28831523656845093
      ],
      "type": "VEC2"
    },
    {
      "bufferView": 1,
      "byteOffset": 343408,
      "componentType": 5126,
      "count": 734,
      "max": [
        0.8257848620414734,
        0.9489175081253052
      ],
      "min": [
        0.0009791665943339467,
        0.28831523656845093
      ],
      "type": "VEC2"
    },
    {
      "bufferView": 1,
      "byteOffset": 349280,
      "componentType": 5126,
      "count": 734,
      "max": [
        0.8257848620414734,
        0.9489175081253052
      ],
      "min": [
        0.0009791665943339467,
        0.28831523656845093
      ],
      "type": "VEC2"
    },
    {
      "bufferView": 0,
      "byteOffset": 231168,
      "componentType": 5125,
      "count": 3162,
      "type": "SCALAR"
    },
    {
      "bufferView": 2,
      "byteOffset": 355152,
      "componentType": 5126,
      "count": 6725,
      "max": [
        0.0007506464025937021,
        0.012428340502083302,
        0.016843417659401894
      ],
      "min": [
        -0.08016150444746017,
        -0.012428340502083302,
        -0.0192752406001091
      ],
      "type": "VEC3"
    },
    {
      "bufferView": 2,
      "byteOffset": 435852,
      "componentType": 5126,
      "count": 6725,
      "max": [
        0.9999927282333374,
        0.9998587369918823,
        0.9998366832733154
      ],
      "min": [
        -0.9943453669548035,
        -0.9998587369918823,
        -0.9992386698722839
      ],
      "type": "VEC3"
    },
    {
      "bufferView": 3,
      "byteOffset": 236768,
      "componentType": 5126,
      "count": 6725,
      "max": [
        0.9905123114585876,
        0.9999998211860657,
        0.9997654557228088,
        1.0
      ],
      "min": [
        -0.9992386102676392,
        -1.0,
        -0.9999927878379822,
        -1.0
      ],
      "type": "VEC4"
    },
    {
      "bufferView": 1,
      "byteOffset": 355152,
      "componentType": 5126,
      "count": 6725,
      "max": [
        0.8542252779006958,
        0.9986969828605652
      ],
      "min": [
        0.0012213615700602531,
        0.0009765625
      ],
      "type": "VEC2"
    },
    {
      "bufferView": 1,
      "byteOffset": 408952,
      "componentType": 5126,
      "count": 6725,
      "max": [
        0.8542252779006958,
        0.9986969828605652
      ],
      "min": [
        0.0012213615700602531,
        0.0009765625
      ],
      "type": "VEC2"
    },
    {
      "bufferView": 1,
      "byteOffset": 462752,
      "componentType": 5126,
      "count": 6725,
      "max": [
        0.8542252779006958,
        0.9986969828605652
      ],
      "min": [
        0.0012213615700602531,
        0.0009765625
      ],
      "type": "VEC2"
    },
    {
      "bufferView": 0,
      "byteOffset": 243816,
      "componentType": 5125,
      "count": 25590,
      "type": "SCALAR"
    },
    {
      "bufferView": 2,
      "byteOffset": 516552,
      "componentType": 5126,
      "count": 1604,
      "max": [
        0.022107895463705063,
        0.06817270815372467,
        -0.03359413146972656
      ],
      "min": [
        -0.022107895463705063,
        -0.08640149235725403,
        -0.23638185858726501
      ],
      "type": "VEC3"
    },
    {
      "bufferView": 2,
      "byteOffset": 535800,
      "componentType": 5126,
      "count": 1604,
      "max": [
        0.9999906420707703,
        0.9996097683906555,
        0.9980863332748413
      ],
      "min": [
        -0.9999906420707703,
        -0.9984801411628723,
        -0.9999994039535522
      ],
      "type": "VEC3"
    },
    {
      "bufferView": 3,
      "byteOffset": 344368,
      "componentType": 5126,
      "count": 1604,
      "max": [
        0.9999701976776123,
        0.9969613552093506,
        0.9998170137405396,
        1.0
      ],
      "min": [
        -0.9999973177909851,
        -0.9999995231628418,
        -0.9998169541358948,
        -1.0
      ],
      "type": "VEC4"
    },
    {
      "bufferView": 1,
      "byteOffset": 516552,
      "componentType": 5126,
      "count": 1604,
      "max": [
        0.9516981244087219,
        0.9990234375
      ],
      "min": [
        0.0009829390328377485,
        0.10242432355880737
      ],
      "type": "VEC2"
    },
    {
      "bufferView": 1,
      "byteOffset": 529384,
      "componentType": 5126,
      "count": 1604,
      "max": [
        0.9516981244087219,
        0.9990234375
      ],
      "min": [
        0.0009829390328377485,
        0.10242432355880737
      ],
      "type": "VEC2"
    },
    {
      "bufferView": 1,
      "byteOffset": 542216,
      "componentType": 5126,
      "count": 1604,
      "max": [
        0.9516981244087219,
        0.9990234375
      ],
      "min": [
        0.0009829390328377485,
        0.10242432355880737
      ],
      "type": "VEC2"
    },
    {
      "bufferView": 0,
      "byteOffset": 346176,
      "componentType": 5125,
      "count": 8820,
      "type": "SCALAR"
    },
    {
      "bufferView": 2,
      "byteOffset": 555048,
      "componentType": 5126,
      "count": 1848,
      "max": [
        0.015457846224308014,
        0.011767588555812836,
        0.0719311386346817
      ],
      "min": [
        -0.02173645794391632,
        -0.0664975494146347,
        0.03827059268951416
      ],
      "type": "VEC3"
    },
    {
      "bufferView": 2,
      "byteOffset": 577224,
      "componentType": 5126,
      "count": 1848,
      "max": [
        0.9999983906745911,
        0.9839450716972351,
        1.0
      ],
      "min": [
        -0.9999983906745911,
        -0.12851499021053314,
        -0.9999997019767761
      ],
      "type": "VEC3"
    },
    {
      "bufferView": 3,
      "byteOffset": 370032,
      "componentType": 5126,
      "count": 1848,
      "max": [
        0.9999958872795105,
        0.9999974370002747,
        0.9999929070472717,
        1.0
      ],
      "min": [
        -0.9999595284461975,
        -0.9999997615814209,
        -0.9999901652336121,
        -1.0
      ],
      "type": "VEC4"
    },
    {
      "bufferView": 1,
      "byteOffset": 555048,
      "componentType": 5126,
      "count": 1848,
      "max": [
        0.8429445028305054,
        0.980057954788208
      ],
      "min": [
        0.44282907247543335,
        0.0009864334715530276
      ],
      "type": "VEC2"
    },
    {
      "bufferView": 1,
      "byteOffset": 569832,
      "componentType": 5126,
      "count": 1848,
      "max": [
        0.8429445028305054,
        0.980057954788208
      ],
      "min": [
        0.44282907247543335,
        0.0009864334715530276
      ],
      "type": "VEC2"
    },
    {
      "bufferView": 1,
      "byteOffset": 584616,
      "componentType": 5126,
      "count": 1848,
      "max": [
        0.8429445028305054,
        0.980057954788208
      ],
      "min": [
        0.44282907247543335,
        0.0009864334715530276
      ],
      "type": "VEC2"
    },
    {
      "bufferView": 0,
      "byteOffset": 381456,
      "componentType": 5125,
      "count": 9084,
      "type": "SCALAR"
    },
    {
      "bufferView": 2,
      "byteOffset": 599400,
      "componentType": 5126,
      "count": 1185,
      "max": [
        -0.0009715594351291656,
        0.004100323189049959,
        0.014809292741119862
      ],
      "min": [
        -0.10337018221616745,
        -0.004100323189049959,
        -0.037229202687740326
      ],
      "type": "VEC3"
    },
    {
      "bufferView": 2,
      "byteOffset": 613620,
      "componentType": 5126,
      "count": 1185,
      "max": [
        0.999479353427887,
        1.0,
        0.9488034844398499
      ],
      "min": [
        -0.9998621344566345,
        -1.0,
        -0.999979555606842
      ],
      "type": "VEC3"
    },
    {
      "bufferView": 3,
      "byteOffset": 399600,
      "componentType": 5126,
      "count": 1185,
      "max": [
        0.6701163053512573,
        0.9997763633728027,
        0.8946665525436401,
        1.0
      ],
      "min": [
        -0.997599184513092,
        -0.9992712736129761,
        -0.9598500728607178,
        -1.0
      ],
      "type": "VEC4"
    },
    {
      "bufferView": 1,
      "byteOffset": 599400,
      "componentType": 5126,
      "count": 1185,
      "max": [
        0.21323084831237793,
        0.9328638315200806
      ],
      "min": [
        0.0009765625,
        0.0015628186520189047
      ],
      "type": "VEC2"
    },
    {
      "bufferView": 1,
      "byteOffset": 608880,
      "componentType": 5126,
      "count": 1185,
      "max": [
        0.21323084831237793,
        0.9328638315200806
      ],
      "min": [
        0.0009765625,
        0.0015628186520189047
      ],
      "type": "VEC2"
    },
    {
      "bufferView": 1,
      "byteOffset": 618360,
      "componentType": 5126,
      "count": 1185,
      "max": [
        0.21323084831237793,
        0.9328638315200806
      ],
      "min": [
        0.0009765625,
        0.0015628186520189047
      ],
      "type": "VEC2"
    },
    {
      "bufferView": 0,
      "byteOffset": 417792,
      "componentType": 5125,
      "count": 4236,
      "type": "SCALAR"
    }
  ],
  "asset": {
    "extras": {
      "author": "mefq (https://sketchfab.com/thatmefq)",
      "license": "CC-BY-NC-SA-4.0 (http://creativecommons.org/licenses/by-nc-sa/4.0/)",
      "source": "https://sketchfab.com/3d-models/the-god-of-war-blades-of-chaos-03d846c194b24832a6d371fac2a7dc82",
      "title": "The God of War - Blades Of Chaos"
    },
    "generator": "Sketchfab-16.65.0",
    "version": "2.0"
  },
  "bufferViews": [
    {
      "buffer": 0,
      "byteLength": 434736,
      "name": "floatBufferViews",
      "target": 34963
    },
    {
      "buffer": 0,
      "byteLength": 627840,
      "byteOffset": 434736,
      "byteStride": 8,
      "name": "floatBufferViews",
      "target": 34962
    },
    {
      "buffer": 0,
      "byteLength": 627840,
      "byteOffset": 1062576,
      "byteStride": 12,
      "name": "floatBufferViews",
      "target": 34962
    },
    {
      "buffer": 0,
      "byteLength": 418560,
      "byteOffset": 1690416,
      "byteStride": 16,
      "name": "floatBufferViews",
      "target": 34962
    }
  ],
  "buffers": [
    {
      "byteLength": 2108976,
      "uri": "scene.bin"
    }
  ],
  "images": [
    {
      "uri": "textures/Material.002_baseColor.png"
    },
    {
      "uri": "textures/Material.002_metallicRoughness.png"
    },
    {
      "uri": "textures/Material.002_normal.png"
    }
  ],
  "materials": [
    {
      "doubleSided": true,
      "name": "Material.002",
      "normalTexture": {
        "index": 2
      },
      "pbrMetallicRoughness": {
        "baseColorTexture": {
          "index": 0
        },
        "metallicRoughnessTexture": {
          "index": 1
        }
      }
    }
  ],
  "meshes": [
    {
      "name": "Blade_Material.002_0",
      "primitives": [
        {
          "attributes": {
            "NORMAL": 1,
            "POSITION": 0,
            "TANGENT": 2,
            "TEXCOORD_0": 3,
            "TEXCOORD_1": 4,
            "TEXCOORD_2": 5
          },
          "indices": 6,
          "material": 0,
          "mode": 4
        }
      ]
    },
    {
      "name": "Circle.015_Material.002_0",
      "primitives": [
        {
          "attributes": {
            "NORMAL": 8,
            "POSITION": 7,
            "TANGENT": 9,
            "TEXCOORD_0": 10,
            "TEXCOORD_1": 11,
            "TEXCOORD_2": 12
          },
          "indices": 13,
          "material": 0,
          "mode": 4
        }
      ]
    },
    {
      "name": "Circle.016_Material.002_0",
      "primitives": [
        {
          "attributes": {
            "NORMAL": 15,
            "POSITION": 14,
            "TANGENT": 16,
            "TEXCOORD_0": 17,
            "TEXCOORD_1": 18,
            "TEXCOORD_2": 19
          },
          "indices": 20,
          "material": 0,
          "mode": 4
        }
      ]
    },
    {
      "name": "Circle.017_Material.002_0",
      "primitives": [
        {
          "attributes": {
            "NORMAL": 22,
            "POSITION": 21,
            "TANGENT": 23,
            "TEXCOORD_0": 24,
            "TEXCOORD_1": 25,
            "TEXCOORD_2": 26
          },
          "indices": 27,
          "material": 0,
          "mode": 4
        }
      ]
    },
    {
      "name": "Cylinder.036_Material.002_0",
      "primitives": [
        {
          "attributes": {
            "NORMAL": 29,
            "POSITION": 28,
            "TANGENT": 30,
            "TEXCOORD_0": 31,
            "TEXCOORD_1": 32,
            "TEXCOORD_2": 33
          },
          "indices": 34,
          "material": 0,
          "mode": 4
        }
      ]
    },
    {
      "name": "Plane.060_Material.002_0",
      "primitives": [
        {
          "attributes": {
            "NORMAL": 36,
            "POSITION": 35,
            "TANGENT": 37,
            "TEXCOORD_0": 38,
            "TEXCOORD_1": 39,
            "TEXCOORD_2": 40
          },
          "indices": 41,
          "material": 0,
          "mode": 4
        }
      ]
    },
    {
      "name": "Blade.001_Material.002_0",
      "primitives": [
        {
          "attributes": {
            "NORMAL": 43,
            "POSITION": 42,
            "TANGENT": 44,
            "TEXCOORD_0": 45,
            "TEXCOORD_1": 46,
            "TEXCOORD_2": 47
          },
          "indices": 48,
          "material": 0,
          "mode": 4
        }
      ]
    },
    {
      "name": "Circle.018_Material.002_0",
      "primitives": [
        {
          "attributes": {
            "NORMAL": 50,
            "POSITION": 49,
            "TANGENT": 51,
            "TEXCOORD_0": 52,
            "TEXCOORD_1": 53,
            "TEXCOORD_2": 54
          },
          "indices": 55,
          "material": 0,
          "mode": 4
        }
      ]
    },
    {
      "name": "Circle.019_Material.002_0",
      "primitives": [
        {
          "attributes": {
            "NORMAL": 57,
            "POSITION": 56,
            "TANGENT": 58,
            "TEXCOORD_0": 59,
            "TEXCOORD_1": 60,
            "TEXCOORD_2": 61
          },
          "indices": 62,
          "material": 0,
          "mode": 4
        }
      ]
    },
    {
      "name": "Circle.020_Material.002_0",
      "primitives": [
        {
          "attributes": {
            "NORMAL": 64,
            "POSITION": 63,
            "TANGENT": 65,
            "TEXCOORD_0": 66,
            "TEXCOORD_1": 67,
            "TEXCOORD_2": 68
          },
          "indices": 69,
          "material": 0,
          "mode": 4
        }
      ]
    },
    {
      "name": "Cylinder.045_Material.002_0",
      "primitives": [
        {
          "attributes": {
            "NORMAL": 71,
            "POSITION": 70,
            "TANGENT": 72,
            "TEXCOORD_0": 73,
            "TEXCOORD_1": 74,
            "TEXCOORD_2": 75
          },
          "indices": 76,
          "material": 0,
          "mode": 4
        }
      ]
    },
    {
      "name": "Plane.061_Material.002_0",
      "primitives": [
        {
          "attributes": {
            "NORMAL": 78,
            "POSITION": 77,
            "TANGENT": 79,
            "TEXCOORD_0": 80,
            "TEXCOORD_1": 81,
            "TEXCOORD_2": 82
          },
          "indices": 83,
          "material": 0,
          "mode": 4
        }
      ]
    }
  ],
  "nodes": [
    {
      "children": [
        1
      ],
      "matrix": [
        1.0,
        0.0,
        0.0,
        0.0,
        0.0,
        2.220446049250313e-16,
        -1.0,
        0.0,
        0.0,
        1.0,
        2.220446049250313e-16,
        0.0,
        0.0,
        0.0,
        0.0,
        1.0
      ],
      "name": "Sketchfab_model"
    },
    {
      "children": [
        2
      ],
      "matrix": [
        0.009999999776482582,
        0.0,
        0.0,
        0.0,
        0.0,
        0.0,
        0.009999999776482582,
        0.0,
        0.0,
        -0.009999999776482582,
        0.0,
        0.0,
        0.0,
        0.0,
        0.0,
        1.0
      ],
      "name": "BladesOfChaos.fbx"
    },
    {
      "children": [
        3,
        15
      ],
      "name": "RootNode"
    },
    {
      "children": [
        4,
        5,
        7,
        9,
        11,
        13
      ],
      "matrix": [
        -1108.4873467668622,
        873.3030566556071,
        -315.28141581612886,
        0.0,
        -0.00016687790957394295,
        491.0051555368215,
        1360.0436519103057,
        0.0,
        928.4721858639716,
        1042.621938354225,
        -376.4089419829761,
        0.0,
        37.018672943115234,
        375.4161071777344,
        -34.30398178100586,
        1.0
      ],
      "name": "Blade"
    },
    {
      "mesh": 0,
      "name": "Blade_Material.002_0"
    },
    {
      "children": [
        6
      ],
      "matrix": [
        1.0000002384185749,
        -1.4901158529312392e-08,
        -8.940696715614702e-08,
        0.0,
        1.4901156975001226e-08,
        0.9999999999999997,
        2.2351741874038215e-08,
        0.0,
        8.940696682308014e-08,
        -2.2351748535375912e-08,
        1.0000002384185749,
        0.0,
        -0.21550175547599792,
        0.0004915213212370872,
        0.029202699661254883,
        1.0
      ],
      "name": "Circle.015"
    },
    {
      "mesh": 1,
      "name": "Circle.015_Material.002_0"
    },
    {
      "children": [
        8
      ],
      "matrix": [
        1.0000002384185749,
        -1.4901158529312392e-08,
        -8.940696715614702e-08,
        0.0,
        1.4901156975001226e-08,
        0.9999999999999997,
        2.2351741874038215e-08,
        0.0,
        8.940696682308014e-08,
        -2.2351748535375912e-08,
        1.0000002384185749,
        0.0,
        -0.13550543785095215,
        -4.664086736738682e-05,
        0.03063560277223587,
        1.0
      ],
      "name": "Circle.016"
    },
    {
      "mesh": 2,
      "name": "Circle.016_Material.002_0"
    },
    {
      "children": [
        10
      ],
      "matrix": [
        -4.136231543864472e-08,
        -0.9462594389915441,
        5.640146429244541e-08,
        0.0,
        -4.136232338090226e-08,
        -5.6401469664450996e-08,
        -0.9462595582008336,
        0.0,
        0.9462594985961897,
        -4.136232035527658e-08,
        -4.136231846427023e-08,
        0.0,
        -2.2631138563156128e-07,
        2.7939677238464355e-08,
        -0.005810264497995377,
        1.0
      ],
      "name": "Circle.017"
    },
    {
      "mesh": 3,
      "name": "Circle.017_Material.002_0"
    },
    {
      "children": [
        12
      ],
      "matrix": [
        3.13916478589249e-07,
        -0.9999999999999498,
        -4.470348721752339e-08,
        0.0,
        1.0000002384185245,
        3.139165580957076e-07,
        -1.0430810345324337e-07,
        0.0,
        1.0430811748640298e-07,
        -4.470346513163032e-08,
        1.0000002384185727,
        0.0,
        -2.2910535335540771e-07,
        -0.003139285370707512,
        -0.005810266360640526,
        1.0
      ],
      "name": "Cylinder.036"
    },
    {
      "mesh": 4,
      "name": "Cylinder.036_Material.002_0"
    },
    {
      "children": [
        14
      ],
      "matrix": [
        1.0000002384185749,
        -1.4901158529312392e-08,
        -8.940696715614702e-08,
        0.0,
        1.4901156975001226e-08,
        0.9999999999999997,
        2.2351741874038215e-08,
        0.0,
        8.940696682308014e-08,
        -2.2351748535375912e-08,
        1.0000002384185749,
        0.0,
        -0.21379421651363373,
        0.0004915222525596619,
        0.029202453792095184,
        1.0
      ],
      "name": "Plane.060"
    },
    {
      "mesh": 5,
      "name": "Plane.060_Material.002_0"
    },
    {
      "children": [
        16,
        17,
        19,
        21,
        23,
        25
      ],
      "matrix": [
        1104.0635086008085,
        919.5190308420824,
        -162.2776164372894,
        0.0,
        86.78951541233897,
        -351.2736848170654,
        -1399.9571001537122,
        0.0,
        -929.6863486993444,
        1059.1963296532917,
        -323.40621387712116,
        0.0,
        -68.4645767211914,
        390.91650390625,
        -13.77894401550293,
        1.0
      ],
      "name": "Blade.001"
    },
    {
      "mesh": 6,
      "name": "Blade.001_Material.002_0"
    },
    {
      "children": [
        18
      ],
      "matrix": [
        0.9999999999999982,
        7.450580583046038e-09,
        5.96046448274323e-08,
        0.0,
        -7.450581027135209e-09,
        1.0000001192092896,
        -7.45058145734667e-09,
        0.0,
        -5.960464488294345e-08,
        7.4505801250790575e-09,
        0.9999999999999982,
        0.0,
        -0.2155013084411621,
        0.0004913806915283203,
        0.029202453792095184,
        1.0
      ],
      "name": "Circle.018"
    },
    {
      "mesh": 7,
      "name": "Circle.018_Material.002_0"
    },
    {
      "children": [
        20
      ],
      "matrix": [
        0.9999999999999982,
        7.450580583046038e-09,
        5.96046448274323e-08,
        0.0,
        -7.450581027135209e-09,
        1.0000001192092896,
        -7.45058145734667e-09,
        0.0,
        -5.960464488294345e-08,
        7.4505801250790575e-09,
        0.9999999999999982,
        0.0,
        -0.13550572097301483,
        -4.678498953580856e-05,
        0.030636049807071686,
        1.0
      ],
      "name": "Circle.019"
    },
    {
      "mesh": 8,
      "name": "Circle.019_Material.002_0"
    },
    {
      "children": [
        22
      ],
      "matrix": [
        -4.13623180440466e-08,
        -0.9462594985961889,
        -5.640145466064301e-08,
        0.0,
        -4.1362310311901364e-08,
        5.6401449341166704e-08,
        -0.9462593793868993,
        0.0,
        0.9462594389915449,
        -4.136231291730308e-08,
        -4.136231543864472e-08,
        0.0,
        -4.917383193969727e-07,
        -2.1047890186309814e-07,
        -0.005810266360640526,
        1.0
      ],
      "name": "Circle.020"
    },
    {
      "mesh": 9,
      "name": "Circle.020_Material.002_0"
    },
    {
      "children": [
        24
      ],
      "matrix": [
        3.1391651645509864e-07,
        -1.0000001192092398,
        -2.9802299239545216e-08,
        0.0,
        0.9999999999999436,
        3.139164754806245e-07,
        1.1920926825878533e-07,
        0.0,
        -1.1920925890334778e-07,
        -2.98023331085868e-08,
        0.9999999999999925,
        0.0,
        -4.954636096954346e-07,
        -0.003139464184641838,
        -0.005810264497995377,
        1.0
      ],
      "name": "Cylinder.045"
    },
    {
      "mesh": 10,
      "name": "Cylinder.045_Material.002_0"
    },
    {
      "children": [
        26
      ],
      "matrix": [
        0.9999999999999982,
        7.450580583046038e-09,
        5.96046448274323e-08,
        0.0,
        -7.450581027135209e-09,
        1.0000001192092896,
        -7.45058145734667e-09,
        0.0,
        -5.960464488294345e-08,
        7.4505801250790575e-09,
        0.9999999999999982,
        0.0,
        -0.21379470825195313,
        0.0004913806915283203,
        0.029202930629253387,
        1.0
      ],
      "name": "Plane.061"
    },
    {
      "mesh": 11,
      "name": "Plane.061_Material.002_0"
    }
  ],
  "samplers": [
    {
      "magFilter": 9729,
      "minFilter": 9987,
      "wrapS": 10497,
      "wrapT": 10497
    }
  ],
  "scene": 0,
  "scenes": [
    {
      "name": "Sketchfab_Scene",
      "nodes": [
        0
      ]
    }
  ],
  "textures": [
    {
      "sampler": 0,
      "source": 0
    },
    {
      "sampler": 0,
      "source": 1
    },
    {
      "sampler": 0,
      "source": 2
    }
  ]
}
